<svg id="flat" height="512" viewBox="0 0 512 512" width="512" xmlns="http://www.w3.org/2000/svg"><path d="m368 384v-16l-48-24 48-24v-32h-120v96z" fill="#91591c"/><path d="m393.186 245.778 38.814 58.222v24h-24l-56-56v-24z" fill="#91591c"/><path d="m488 320v16a32 32 0 1 1 -64 0v-16a32 32 0 1 1 64 0z" fill="#ffc431"/><path d="m464 289.01v77.98a32.18786 32.18786 0 0 1 -16 0v-77.98a32.18786 32.18786 0 0 1 16 0z" fill="#ffb401"/><path d="m488 200v24l-24 16h-48l-40 40 32 32 24 8v24l-8 8h-16l-16-16-68.32007-34.16016a33.69333 33.69333 0 0 1 -11.51 12.0503l-48.16993 30.10986 48 24v16h-80v-32a24.00619 24.00619 0 0 0 -24-24h-.07007a88.02068 88.02068 0 0 1 -66.23-30.05l-26.40993-30.19a11.00272 11.00272 0 0 0 -19.29 7.25v84.99l-21.3999-11.89014a98.37539 98.37539 0 0 1 -50.6001-85.98974 86.11594 86.11594 0 0 1 171.23-13.10012l4.77 30.98a96.75238 96.75238 0 0 1 96.35986-88h71.64014l23.03-23.03a23.97457 23.97457 0 0 1 -7.03-16.97v-16h16a24.00619 24.00619 0 0 1 24 24 66.56891 66.56891 0 0 1 51.99 24.99z" fill="#b1712c"/><path d="m432 184h8a8 8 0 0 1 8 8v8a0 0 0 0 1 0 0h-8a8 8 0 0 1 -8-8v-8a0 0 0 0 1 0 0z" fill="#91591c"/><g fill="#a36522"><path d="m416 240-12.68629-12.68629a16 16 0 0 0 -22.62742 0l-4.68629 4.68629a33.9411 33.9411 0 0 0 0 48z"/><path d="m322.92626 301.18781a8.05679 8.05679 0 0 1 -3.808-9.19027 25.70393 25.70393 0 0 0 .88174-6.66454 29.36681 29.36681 0 0 0 -29.333-29.333h-10.66885a7.99815 7.99815 0 0 1 -7.99815-7.99815v-.0037a7.99815 7.99815 0 0 1 7.99815-7.99815h10.66885a45.38389 45.38389 0 0 1 45.333 45.333 41.72481 41.72481 0 0 1 -1.488 11.02583 7.99254 7.99254 0 0 1 -11.58574 4.82898z"/><path d="m408 176-16 16h-24l23.03-23.03a23.97339 23.97339 0 0 0 16.97 7.03z"/></g></svg>